<mxfile host="app.diagrams.net" modified="2023-03-21T22:33:13.167Z" agent="5.0 (Windows NT 10.0; Win64; x64) AppleWebKit/537.36 (KHTML, like Gecko) Chrome/111.0.0.0 Safari/537.36" etag="PcoiKDgRB7lb1Hl4zCVt" version="21.0.10" type="github">
  <diagram name="Page-1" id="c7558073-3199-34d8-9f00-42111426c3f3">
    <mxGraphModel dx="1838" dy="1025" grid="1" gridSize="10" guides="1" tooltips="1" connect="1" arrows="1" fold="1" page="1" pageScale="1" pageWidth="1169" pageHeight="827" background="none" math="0" shadow="0">
      <root>
        <mxCell id="0" />
        <mxCell id="1" parent="0" />
        <mxCell id="Re19oTjXY0Z48xST3mG2-101" value="" style="rounded=1;whiteSpace=wrap;html=1;fillColor=none;" vertex="1" parent="1">
          <mxGeometry x="240" y="360" width="480" height="340" as="geometry" />
        </mxCell>
        <mxCell id="Re19oTjXY0Z48xST3mG2-96" value="(POD)&lt;br&gt;mySQL" style="whiteSpace=wrap;html=1;aspect=fixed;rounded=1;" vertex="1" parent="1">
          <mxGeometry x="300" y="494" width="80" height="80" as="geometry" />
        </mxCell>
        <mxCell id="Re19oTjXY0Z48xST3mG2-116" style="edgeStyle=orthogonalEdgeStyle;rounded=0;orthogonalLoop=1;jettySize=auto;html=1;exitX=0.5;exitY=0;exitDx=0;exitDy=0;" edge="1" parent="1" source="Re19oTjXY0Z48xST3mG2-97" target="Re19oTjXY0Z48xST3mG2-98">
          <mxGeometry relative="1" as="geometry" />
        </mxCell>
        <mxCell id="Re19oTjXY0Z48xST3mG2-97" value="Persistent&lt;br&gt;Volume" style="whiteSpace=wrap;html=1;aspect=fixed;" vertex="1" parent="1">
          <mxGeometry x="300" y="730" width="80" height="80" as="geometry" />
        </mxCell>
        <mxCell id="Re19oTjXY0Z48xST3mG2-98" value="PVC" style="whiteSpace=wrap;html=1;aspect=fixed;rounded=1;" vertex="1" parent="1">
          <mxGeometry x="300" y="600" width="80" height="80" as="geometry" />
        </mxCell>
        <mxCell id="Re19oTjXY0Z48xST3mG2-99" value="(SVC)&lt;br&gt;mySQL" style="whiteSpace=wrap;html=1;aspect=fixed;rounded=1;" vertex="1" parent="1">
          <mxGeometry x="300" y="388" width="80" height="80" as="geometry" />
        </mxCell>
        <mxCell id="Re19oTjXY0Z48xST3mG2-102" value="(POD)&lt;br&gt;pokemon" style="whiteSpace=wrap;html=1;aspect=fixed;rounded=1;" vertex="1" parent="1">
          <mxGeometry x="550" y="493" width="80" height="80" as="geometry" />
        </mxCell>
        <mxCell id="Re19oTjXY0Z48xST3mG2-104" value="(SVC)&lt;br&gt;Pokemon" style="whiteSpace=wrap;html=1;aspect=fixed;rounded=1;" vertex="1" parent="1">
          <mxGeometry x="550" y="388" width="80" height="80" as="geometry" />
        </mxCell>
        <mxCell id="Re19oTjXY0Z48xST3mG2-106" value="30007" style="rounded=0;whiteSpace=wrap;html=1;" vertex="1" parent="1">
          <mxGeometry x="560" y="320" width="120" height="40" as="geometry" />
        </mxCell>
        <mxCell id="Re19oTjXY0Z48xST3mG2-107" value="" style="endArrow=classic;html=1;rounded=0;exitX=0;exitY=0.5;exitDx=0;exitDy=0;" edge="1" parent="1" source="Re19oTjXY0Z48xST3mG2-102">
          <mxGeometry width="50" height="50" relative="1" as="geometry">
            <mxPoint x="630" y="530" as="sourcePoint" />
            <mxPoint x="380" y="430" as="targetPoint" />
            <Array as="points" />
          </mxGeometry>
        </mxCell>
        <mxCell id="Re19oTjXY0Z48xST3mG2-108" value="Windows host&lt;br&gt;(/mnt/host/c/k8data)" style="rounded=0;whiteSpace=wrap;html=1;" vertex="1" parent="1">
          <mxGeometry x="100" y="740" width="120" height="60" as="geometry" />
        </mxCell>
        <mxCell id="Re19oTjXY0Z48xST3mG2-109" value="" style="endArrow=classic;html=1;rounded=0;entryX=0;entryY=0.5;entryDx=0;entryDy=0;" edge="1" parent="1" target="Re19oTjXY0Z48xST3mG2-97">
          <mxGeometry width="50" height="50" relative="1" as="geometry">
            <mxPoint x="220" y="770" as="sourcePoint" />
            <mxPoint x="230" y="730" as="targetPoint" />
          </mxGeometry>
        </mxCell>
        <mxCell id="Re19oTjXY0Z48xST3mG2-113" value="" style="endArrow=classic;html=1;rounded=0;exitX=0.5;exitY=0;exitDx=0;exitDy=0;entryX=0.5;entryY=1;entryDx=0;entryDy=0;" edge="1" parent="1" source="Re19oTjXY0Z48xST3mG2-98" target="Re19oTjXY0Z48xST3mG2-96">
          <mxGeometry width="50" height="50" relative="1" as="geometry">
            <mxPoint x="630" y="520" as="sourcePoint" />
            <mxPoint x="680" y="470" as="targetPoint" />
          </mxGeometry>
        </mxCell>
        <mxCell id="Re19oTjXY0Z48xST3mG2-114" value="" style="endArrow=classic;html=1;rounded=0;exitX=0.5;exitY=0;exitDx=0;exitDy=0;entryX=0.5;entryY=1;entryDx=0;entryDy=0;" edge="1" parent="1">
          <mxGeometry width="50" height="50" relative="1" as="geometry">
            <mxPoint x="341" y="495" as="sourcePoint" />
            <mxPoint x="341" y="468" as="targetPoint" />
          </mxGeometry>
        </mxCell>
        <mxCell id="Re19oTjXY0Z48xST3mG2-115" value="" style="endArrow=classic;html=1;rounded=0;" edge="1" parent="1">
          <mxGeometry width="50" height="50" relative="1" as="geometry">
            <mxPoint x="630" y="520" as="sourcePoint" />
            <mxPoint x="680" y="470" as="targetPoint" />
          </mxGeometry>
        </mxCell>
      </root>
    </mxGraphModel>
  </diagram>
</mxfile>
